<?xml version="1.0" standalone="no"?>
<!DOCTYPE svg PUBLIC "-//W3C//DTD SVG 20010904//EN"
 "http://www.w3.org/TR/2001/REC-SVG-20010904/DTD/svg10.dtd">
<svg version="1.0" xmlns="http://www.w3.org/2000/svg"
 width="70.000000pt" height="70.000000pt" viewBox="0 0 70.000000 70.000000"
 preserveAspectRatio="xMidYMid meet">
<metadata>
Created by potrace 1.14, written by Peter Selinger 2001-2017
</metadata>
<g transform="translate(0.000000,70.000000) scale(0.100000,-0.100000)"
fill="#000000" stroke="none">
<path d="M0 350 l0 -350 350 0 350 0 0 350 0 350 -350 0 -350 0 0 -350z m394
216 c161 -67 200 -282 71 -395 -53 -46 -93 -61 -165 -61 l-61 0 3 43 3 42 61
6 c97 9 144 56 144 143 0 90 -59 146 -153 146 -42 0 -46 -2 -49 -27 -3 -25 -7
-28 -45 -31 l-43 -3 0 75 0 76 100 0 c63 0 113 -5 134 -14z"/>
</g>
</svg>
